PathFileType	4	(X/Y/Z)	TVC_60_BWA01_walk_RCNL2025.trc
DataRate	CameraRate	NumFrames	NumMarkers	Units	OrigDataRate	OrigDataStartFrame	OrigNumFrames
100	100	7	27	mm	100	49	384
Frame#	Time	R_Shoulder			L_Shoulder			C7			J_Notch			R_Elbow			L_Elbow			R_Wrist			L_Wrist			R_Asis			L_Asis			R_Psis			L_Psis			Sacral			Thoracic			Sternum			R_Thigh_Lateral			R_Knee_Lateral			R_Shank_Lateral			R_Ankle_Lateral			R_Heel			R_Toe			L_Thigh_Lateral			L_Knee_Lateral			L_Shank_Lateral			L_Ankle_Lateral			L_Heel			L_Toe		
		X1	Y1	Z1	X2	Y2	Z2	X3	Y3	Z3	X4	Y4	Z4	X5	Y5	Z5	X6	Y6	Z6	X7	Y7	Z7	X8	Y8	Z8	X9	Y9	Z9	X10	Y10	Z10	X11	Y11	Z11	X12	Y12	Z12	X13	Y13	Z13	X14	Y14	Z14	X15	Y15	Z15	X16	Y16	Z16	X17	Y17	Z17	X18	Y18	Z18	X19	Y19	Z19	X20	Y20	Z20	X21	Y21	Z21	X22	Y22	Z22	X23	Y23	Z23	X24	Y24	Z24	X25	Y25	Z25	X26	Y26	Z26	X27	Y27	Z27
49	0.48000000	-711.844604	1316.242676	3.627646	-734.222717	1339.580200	-348.987213	-780.894348	1396.228394	-174.075668	-673.173340	1263.944702	-179.206573	-807.538086	994.485413	82.613571	-763.237671	997.690186	-420.139862	-747.167664	765.350250	114.341488	-662.860504	790.177002	-469.592285	-690.945312	908.140564	-31.688738	-712.304565	909.178467	-315.959473	-871.748169	901.240784	-97.128250	-881.197205	906.132935	-206.941299	-876.472687	903.686859	-152.034775	-840.563538	1188.651978	-170.632629	-650.448975	1070.256714	-168.800613	-628.085083	612.175110	42.238899	-547.830322	473.231262	-28.118887	-600.770081	263.742920	7.908519	-669.735291	102.220276	-55.229031	-709.155090	103.552780	-107.630928	-547.852539	65.132317	-48.928616	-763.415466	622.833008	-361.833221	-755.561768	433.349792	-275.694214	-811.758240	246.143799	-293.888123	-861.766602	59.274967	-204.895050	-906.154419	64.846382	-161.955307	-735.593506	42.493618	-195.803925
50	0.49000000	-703.921204	1315.577148	3.567852	-726.703796	1339.072021	-349.033295	-773.048279	1395.621704	-174.051193	-665.562317	1263.147827	-179.406357	-802.387268	994.649902	82.479401	-753.908997	997.238525	-421.018982	-744.771942	764.948608	115.215374	-652.128204	790.438568	-470.510345	-683.593872	907.233459	-32.115578	-705.960083	908.560486	-316.356323	-864.671631	900.741394	-96.940628	-874.515747	905.792480	-206.679840	-869.593689	903.266937	-151.810234	-833.121460	1188.182129	-170.471344	-643.287537	1069.427734	-169.336960	-619.770508	612.234497	42.464405	-539.119324	473.448608	-28.504105	-582.336792	261.266571	6.930366	-641.994324	96.519463	-57.051716	-681.193237	96.106674	-109.642426	-518.410217	65.382088	-50.515724	-759.109741	622.390686	-361.997345	-753.335266	432.883453	-275.613708	-810.777832	246.071701	-293.605469	-861.712463	59.491943	-204.364716	-905.907959	65.236885	-161.357681	-735.559326	42.499630	-195.657776
51	0.50000000	-695.924072	1314.887207	3.539165	-719.255920	1338.521606	-349.039673	-765.208008	1394.971313	-173.964249	-657.941589	1262.324585	-179.590378	-797.122192	994.806702	82.409409	-744.669800	996.745361	-421.796448	-742.217560	764.579102	116.131966	-641.490112	790.667419	-471.345917	-676.151733	906.248840	-32.495701	-699.585144	907.927368	-316.718231	-857.517822	900.186584	-96.693367	-867.777222	905.406433	-206.351181	-862.647522	902.796509	-151.522274	-825.651917	1187.659058	-170.218948	-636.082031	1068.572510	-169.862656	-611.750854	612.103577	42.779602	-530.902649	473.388733	-28.839001	-564.418030	259.106506	6.076251	-614.430176	91.563087	-58.787529	-653.365723	89.380547	-111.545929	-489.411957	66.405609	-52.132542	-754.712524	621.949524	-362.141113	-751.098816	432.440948	-275.518524	-809.827087	246.037827	-293.300293	-861.658081	59.747833	-203.804306	-905.651489	65.666016	-160.720276	-735.527710	42.510807	-195.519043
52	0.51000000	-687.854004	1314.178589	3.545506	-711.869873	1337.933228	-349.003967	-757.367493	1394.282593	-173.814133	-650.304993	1261.480103	-179.753967	-791.739319	994.957703	82.403786	-735.521240	996.214844	-422.470886	-739.493195	764.242889	117.087242	-630.955261	790.863678	-472.098038	-668.612671	905.194702	-32.830547	-693.176819	907.286926	-317.043854	-850.278137	899.579834	-96.382118	-860.974426	904.978516	-205.950790	-855.626282	902.279175	-151.166454	-818.148010	1187.087524	-169.877151	-628.828430	1067.696167	-170.369690	-604.041870	611.761963	43.152485	-523.136108	473.069336	-29.140093	-546.999939	257.265503	5.354742	-587.151550	87.380157	-60.387577	-625.809143	83.424477	-113.267555	-460.948669	68.167000	-53.818993	-750.243835	621.515869	-362.265991	-748.840393	432.030792	-275.415558	-808.891846	246.050644	-292.983490	-861.600586	60.049751	-203.235077	-905.387085	66.143486	-160.067398	-735.499390	42.524895	-195.391693
53	0.52000000	-679.712646	1313.457153	3.591154	-704.535767	1337.311646	-348.923462	-749.520569	1393.561279	-173.600052	-642.646362	1260.620239	-179.892014	-786.235046	995.104614	82.462646	-726.464233	995.651428	-423.041016	-736.587646	763.940826	118.077396	-620.532654	791.027374	-472.766068	-660.970703	904.079956	-33.122223	-686.731384	906.647034	-317.332092	-842.944031	898.925110	-96.002968	-854.099792	904.513123	-205.474564	-848.521912	901.719116	-150.738766	-810.602966	1186.472412	-169.448242	-621.522766	1066.804321	-170.850357	-596.652100	611.191040	43.548813	-515.767883	472.512665	-29.423773	-530.068970	255.748611	4.769957	-560.287903	83.979622	-61.808372	-598.675537	78.266396	-114.744850	-433.125641	70.609352	-55.594452	-745.727600	621.092957	-362.376801	-746.543701	431.660217	-275.311676	-807.953308	246.118439	-292.667816	-861.536011	60.405067	-202.680176	-905.116394	66.680527	-159.426453	-735.474731	42.539234	-195.279068
54	0.53000000	-671.502197	1312.728394	3.680625	-697.243347	1336.662720	-348.795074	-741.661072	1392.813477	-173.321136	-634.959351	1259.750854	-179.999252	-780.606140	995.248901	82.586014	-717.499634	995.060181	-423.505707	-733.489807	763.673431	119.098953	-610.231415	791.158966	-473.349655	-653.220398	902.914185	-33.373386	-680.244507	906.014587	-317.582001	-835.507507	898.227173	-95.552818	-847.145752	904.014954	-204.919281	-841.326630	901.121063	-150.236050	-803.010193	1185.818848	-168.935135	-614.160645	1065.902588	-171.297455	-589.579285	610.376160	43.933285	-508.738190	471.744751	-29.705662	-513.615784	254.559906	4.320915	-533.990784	81.347412	-63.015915	-572.131958	73.909561	-115.932739	-406.066376	73.654480	-57.452862	-741.184143	620.683350	-362.480255	-744.188599	431.334656	-275.213745	-806.989136	246.248901	-292.366699	-861.459351	60.821400	-202.162582	-904.839905	67.289505	-158.825363	-735.453979	42.551197	-195.183960
55	0.54000000	-663.225098	1311.997559	3.818522	-689.981628	1335.992065	-348.615601	-733.783081	1392.045532	-172.976456	-627.237549	1258.878296	-180.070282	-774.848938	995.391479	82.773766	-708.627930	994.446411	-423.864014	-730.188690	763.440674	120.148815	-600.060516	791.258972	-473.848724	-645.356995	901.707642	-33.587093	-673.710449	905.395935	-317.792999	-827.960999	897.491272	-95.029686	-840.104370	903.489319	-204.282928	-834.032684	900.490295	-149.656307	-795.363159	1185.132446	-168.341324	-606.737305	1064.996826	-171.704285	-582.806824	609.309387	44.271183	-501.980865	470.794861	-29.999771	-497.640167	253.697708	4.000885	-508.433472	79.443619	-63.989727	-546.359680	70.331261	-116.808372	-379.914764	77.201271	-59.361408	-736.623535	620.291626	-362.584106	-741.751587	431.057648	-275.128326	-805.974243	246.448792	-292.093323	-861.364746	61.306557	-201.703156	-904.556824	67.983467	-158.289780	-735.437195	42.558521	-195.108673
